<?xml version="1.0" encoding="utf-8"?>
<!-- Generator: Adobe Illustrator 16.0.0, SVG Export Plug-In . SVG Version: 6.00 Build 0)  -->
<!DOCTYPE svg PUBLIC "-//W3C//DTD SVG 1.1//EN" "http://www.w3.org/Graphics/SVG/1.1/DTD/svg11.dtd">
<svg version="1.1" id="圖層_1" xmlns="http://www.w3.org/2000/svg" xmlns:xlink="http://www.w3.org/1999/xlink" x="0px" y="0px"
	 width="80px" height="128px" viewBox="0.104 0.063 80 128" enable-background="new 0.104 0.063 80 128" xml:space="preserve">
<g>
	<g>
		<path fill="#C00D01" d="M44.176,4.629c0,0-6.011,3.809-5.071,6.203l22.121,0.222l-0.79,9.662l-5.59,2.734l0.887-8.182
			l-34.578,1.088l-0.561,7.094l-3.672,1.952v-14.57H36.68c-0.942-1.816-0.646-6.203,1.422-9.381L44.176,4.629z"/>
		<path fill="#C00D01" d="M35.403,30.23c0,0,0.566,4.949-15.018,10.124l2.491,4.74c0,0,14.681-5.992,16.213-13.981L35.403,30.23z"/>
		<path fill="#C00D01" d="M37.921,33.049c0,0,0.979,4.879,19.628,4.347l-1.191,5.354c0,0-17.929-0.555-22.171-7.58L37.921,33.049z"
			/>
		<path fill="#C00D01" d="M18.727,48.037h38.287c0,0,6.46,22.602-19.181,24.778C37.831,72.815,15.468,76.103,18.727,48.037"/>
		<path fill="#C00D01" d="M47.713,26.026l3.695-2.101c-1.116-2.126-3.674-2.908-5.725-1.745c-2.035,1.161-2.788,3.824-1.674,5.948
			c1.116,2.126,3.679,2.908,5.719,1.745c0.866-0.489,1.438-1.277,1.798-2.156L47.713,26.026z"/>
		<path fill="#C00D01" d="M29.94,25.402l3.697-2.099c-1.117-2.128-3.679-2.908-5.722-1.745c-2.04,1.162-2.793,3.824-1.677,5.947
			c1.117,2.128,3.678,2.91,5.717,1.747c0.868-0.489,1.44-1.277,1.797-2.156L29.94,25.402z"/>
		<path fill="#F50D01" d="M36.965,60.488c-6.456,0-12.234,1.641-16.202,4.229c5.204,9.823,17.011,8.1,17.011,8.1
			c8.563-0.727,13.534-3.735,16.372-7.416C50.188,62.42,43.975,60.488,36.965,60.488"/>
	</g>
	<g>
		<path fill="#231815" d="M16.942,95.007h-5.244l-4.771-6.533H5.385v6.533H1.107V77.19h6.89c0.95,0,1.777,0.062,2.483,0.186
			c0.707,0.123,1.358,0.38,1.956,0.771c0.612,0.407,1.099,0.923,1.46,1.551c0.36,0.625,0.54,1.423,0.54,2.386
			c0,1.364-0.296,2.472-0.886,3.322c-0.591,0.85-1.38,1.524-2.369,2.026L16.942,95.007z M10.02,82.646
			c0-0.447-0.083-0.831-0.247-1.154c-0.165-0.323-0.439-0.573-0.822-0.747c-0.269-0.12-0.567-0.196-0.896-0.229
			c-0.33-0.032-0.741-0.048-1.231-0.048H5.385v4.798h1.23c0.599,0,1.106-0.037,1.524-0.114c0.418-0.076,0.772-0.237,1.063-0.484
			c0.275-0.226,0.481-0.491,0.615-0.802C9.953,83.556,10.02,83.149,10.02,82.646z"/>
		<path fill="#231815" d="M30.374,88.294c0,2.211-0.581,3.95-1.741,5.224c-1.161,1.273-2.805,1.909-4.928,1.909
			c-2.108,0-3.747-0.636-4.915-1.909c-1.17-1.273-1.756-3.013-1.756-5.224c0-2.233,0.586-3.979,1.756-5.246
			c1.169-1.265,2.807-1.896,4.915-1.896c2.116,0,3.757,0.636,4.922,1.909C29.792,84.333,30.374,86.077,30.374,88.294z
			 M26.246,88.318c0-0.798-0.063-1.463-0.189-1.991c-0.127-0.532-0.301-0.956-0.524-1.275c-0.237-0.335-0.505-0.568-0.805-0.699
			c-0.298-0.133-0.64-0.197-1.023-0.197c-0.361,0-0.688,0.057-0.978,0.172c-0.291,0.115-0.56,0.339-0.805,0.664
			c-0.229,0.311-0.413,0.738-0.552,1.282c-0.139,0.542-0.208,1.224-0.208,2.045c0,0.82,0.064,1.486,0.196,1.992
			c0.131,0.507,0.299,0.911,0.506,1.214c0.215,0.312,0.483,0.54,0.805,0.682c0.321,0.146,0.68,0.217,1.069,0.217
			c0.322,0,0.649-0.071,0.984-0.217c0.334-0.142,0.6-0.358,0.799-0.646c0.238-0.343,0.418-0.755,0.542-1.238
			C26.185,89.84,26.246,89.171,26.246,88.318z"/>
		<path fill="#231815" d="M44.612,95.007h-4.049v-6.665c0-0.543-0.02-1.084-0.063-1.621c-0.043-0.539-0.121-0.935-0.235-1.191
			c-0.139-0.302-0.338-0.521-0.599-0.651c-0.26-0.132-0.608-0.199-1.048-0.199c-0.329,0-0.662,0.064-0.999,0.192
			c-0.338,0.127-0.698,0.331-1.082,0.61v9.523h-4.025V81.568h4.025v1.483c0.658-0.581,1.301-1.036,1.927-1.365
			c0.625-0.327,1.316-0.489,2.076-0.489c1.317,0,2.325,0.434,3.023,1.297c0.698,0.867,1.048,2.12,1.048,3.764V95.007z"/>
		<path fill="#231815" d="M59.331,93.464c0,1.245-0.172,2.301-0.517,3.17c-0.345,0.87-0.818,1.549-1.414,2.034
			c-0.599,0.494-1.314,0.853-2.149,1.071c-0.836,0.22-1.765,0.327-2.783,0.327c-0.858,0-1.673-0.057-2.444-0.172
			c-0.771-0.115-1.438-0.251-2.005-0.402V96.13h0.47c0.201,0.08,0.435,0.169,0.709,0.263c0.273,0.096,0.544,0.183,0.823,0.263
			c0.329,0.089,0.652,0.159,0.965,0.215c0.313,0.057,0.638,0.085,0.966,0.085c0.682,0,1.252-0.074,1.708-0.222
			s0.799-0.356,1.029-0.628c0.229-0.279,0.391-0.609,0.484-0.987c0.09-0.379,0.139-0.856,0.139-1.431v-0.252
			c-0.454,0.416-0.979,0.749-1.571,1c-0.595,0.25-1.205,0.377-1.833,0.377c-1.673,0-2.963-0.566-3.872-1.7
			c-0.907-1.133-1.361-2.856-1.361-5.17c0-1.052,0.14-1.997,0.419-2.835c0.28-0.836,0.67-1.552,1.17-2.144
			c0.476-0.565,1.05-1.002,1.725-1.31c0.675-0.309,1.376-0.461,2.105-0.461c0.657,0,1.247,0.088,1.771,0.263
			c0.521,0.177,0.996,0.41,1.425,0.706l0.149-0.599h3.897v11.9H59.331z M55.309,90.771v-6.092c-0.201-0.095-0.445-0.174-0.736-0.238
			c-0.291-0.062-0.583-0.094-0.875-0.094c-0.965,0-1.692,0.324-2.18,0.974c-0.486,0.649-0.729,1.558-0.729,2.721
			c0,0.583,0.035,1.075,0.11,1.478c0.072,0.402,0.206,0.761,0.407,1.072c0.192,0.304,0.443,0.531,0.753,0.688
			c0.313,0.155,0.707,0.233,1.19,0.233c0.36,0,0.717-0.063,1.063-0.191C54.66,91.192,54.992,91.012,55.309,90.771z"/>
		<path fill="#231815" d="M65.99,76.39l-0.689,7.047h-2.369l-0.69-7.047H65.99z"/>
		<path fill="#231815" d="M72.835,95.378c-0.951,0-1.851-0.106-2.697-0.321c-0.848-0.217-1.547-0.467-2.099-0.754v-3.541h0.333
			c0.192,0.151,0.411,0.317,0.656,0.503c0.247,0.184,0.588,0.374,1.025,0.574c0.373,0.183,0.797,0.341,1.269,0.472
			c0.473,0.132,0.982,0.199,1.535,0.199c0.567,0,1.068-0.092,1.5-0.276c0.434-0.183,0.652-0.473,0.652-0.872
			c0-0.313-0.101-0.548-0.301-0.707c-0.199-0.16-0.585-0.313-1.162-0.455c-0.306-0.081-0.693-0.165-1.161-0.258
			c-0.468-0.091-0.883-0.197-1.24-0.316c-1.012-0.327-1.773-0.812-2.283-1.455c-0.511-0.641-0.766-1.483-0.766-2.53
			c0-0.599,0.132-1.162,0.396-1.692c0.264-0.529,0.653-1.002,1.168-1.418c0.513-0.406,1.149-0.729,1.903-0.97
			c0.755-0.239,1.608-0.358,2.56-0.358c0.903,0,1.736,0.094,2.495,0.281c0.758,0.188,1.399,0.412,1.92,0.677v3.397h-0.322
			c-0.14-0.111-0.357-0.261-0.657-0.449c-0.298-0.187-0.591-0.35-0.874-0.484c-0.337-0.16-0.715-0.293-1.131-0.397
			c-0.42-0.103-0.846-0.154-1.284-0.154c-0.582,0-1.075,0.104-1.478,0.313c-0.402,0.207-0.604,0.483-0.604,0.825
			c0,0.304,0.1,0.543,0.301,0.718c0.198,0.175,0.632,0.347,1.299,0.516c0.344,0.087,0.74,0.172,1.188,0.256
			c0.449,0.085,0.88,0.197,1.294,0.343c0.928,0.311,1.631,0.767,2.11,1.369c0.478,0.603,0.718,1.402,0.718,2.398
			c0,0.63-0.143,1.231-0.426,1.802c-0.284,0.57-0.687,1.051-1.207,1.442c-0.553,0.421-1.202,0.749-1.949,0.979
			C74.771,95.263,73.876,95.378,72.835,95.378z"/>
	</g>
	<g>
		<path fill="#231815" d="M16.402,112.76c0,1.66-0.349,3.146-1.046,4.457c-0.699,1.313-1.58,2.319-2.646,3.022
			c-0.89,0.598-1.858,0.983-2.903,1.155c-1.047,0.17-2.161,0.256-3.342,0.256H1.107v-17.817h5.313c1.204,0,2.33,0.079,3.382,0.24
			c1.05,0.158,2.034,0.545,2.955,1.159c1.126,0.751,2.016,1.763,2.667,3.035C16.077,109.539,16.402,111.037,16.402,112.76z
			 M11.985,112.725c0-1.174-0.193-2.176-0.581-3.01c-0.388-0.833-0.982-1.485-1.788-1.957c-0.582-0.334-1.193-0.519-1.834-0.549
			c-0.64-0.031-1.405-0.047-2.294-0.047h-0.08v11.151h0.081c0.966,0,1.78-0.018,2.444-0.054c0.662-0.036,1.293-0.25,1.891-0.64
			c0.706-0.462,1.242-1.101,1.61-1.914C11.803,114.891,11.985,113.897,11.985,112.725z"/>
		<path fill="#231815" d="M25.327,122.01c-2.439,0-4.308-0.606-5.607-1.819s-1.95-2.938-1.95-5.182c0-2.192,0.606-3.945,1.818-5.252
			c1.21-1.309,2.905-1.962,5.082-1.962c1.979,0,3.465,0.553,4.463,1.661c0.996,1.11,1.494,2.697,1.494,4.764v1.507h-8.82
			c0.038,0.622,0.165,1.143,0.379,1.563c0.215,0.418,0.499,0.751,0.851,0.998c0.345,0.247,0.748,0.424,1.208,0.532
			c0.46,0.107,0.962,0.162,1.507,0.162c0.468,0,0.928-0.055,1.38-0.162c0.452-0.108,0.865-0.251,1.242-0.425
			c0.33-0.15,0.635-0.314,0.914-0.49c0.281-0.174,0.509-0.331,0.685-0.466h0.426v3.46c-0.329,0.134-0.63,0.26-0.901,0.375
			c-0.273,0.115-0.646,0.233-1.121,0.354c-0.438,0.119-0.888,0.213-1.352,0.281C26.558,121.975,25.993,122.01,25.327,122.01z
			 M26.661,113.202c-0.023-0.885-0.222-1.559-0.593-2.023c-0.372-0.461-0.94-0.692-1.708-0.692c-0.781,0-1.393,0.242-1.834,0.729
			c-0.44,0.487-0.685,1.149-0.73,1.987H26.661z"/>
		<path fill="#231815" d="M36.63,122.022c-0.95,0-1.851-0.109-2.696-0.324c-0.849-0.214-1.547-0.465-2.1-0.752v-3.541h0.334
			c0.192,0.15,0.41,0.317,0.656,0.502c0.245,0.185,0.587,0.375,1.023,0.574c0.376,0.182,0.8,0.341,1.271,0.472
			c0.472,0.132,0.984,0.199,1.536,0.199c0.567,0,1.067-0.092,1.5-0.275s0.65-0.474,0.65-0.874c0-0.311-0.099-0.546-0.298-0.705
			c-0.201-0.161-0.587-0.313-1.163-0.456c-0.307-0.079-0.693-0.164-1.161-0.257c-0.467-0.093-0.882-0.197-1.242-0.317
			c-1.012-0.328-1.773-0.813-2.283-1.453c-0.51-0.642-0.765-1.485-0.765-2.532c0-0.599,0.131-1.162,0.396-1.692
			c0.266-0.529,0.653-1.002,1.168-1.418c0.514-0.405,1.148-0.73,1.903-0.969c0.755-0.239,1.607-0.359,2.558-0.359
			c0.906,0,1.737,0.094,2.495,0.281c0.76,0.188,1.4,0.413,1.921,0.677v3.397h-0.322c-0.138-0.11-0.354-0.261-0.654-0.448
			c-0.3-0.188-0.591-0.349-0.874-0.486c-0.338-0.159-0.716-0.291-1.132-0.396c-0.418-0.104-0.845-0.154-1.284-0.154
			c-0.582,0-1.075,0.104-1.477,0.312c-0.402,0.206-0.603,0.482-0.603,0.826c0,0.304,0.099,0.542,0.298,0.717
			c0.199,0.174,0.632,0.346,1.299,0.515c0.346,0.089,0.742,0.174,1.19,0.258c0.449,0.083,0.881,0.196,1.294,0.341
			c0.928,0.312,1.631,0.768,2.111,1.37c0.479,0.603,0.718,1.402,0.718,2.399c0,0.629-0.144,1.23-0.425,1.802
			c-0.284,0.569-0.688,1.051-1.208,1.441c-0.553,0.422-1.202,0.75-1.95,0.98C38.569,121.905,37.673,122.022,36.63,122.022z"/>
		<path fill="#231815" d="M48.961,106.298h-4.257v-3.266h4.255v3.266H48.961z M48.846,121.65H44.82v-13.437h4.025V121.65z"/>
		<path fill="#231815" d="M63.668,120.107c0,1.244-0.172,2.3-0.517,3.171c-0.347,0.868-0.818,1.547-1.414,2.032
			c-0.599,0.495-1.316,0.854-2.149,1.071c-0.836,0.22-1.767,0.327-2.783,0.327c-0.858,0-1.675-0.057-2.444-0.172
			c-0.771-0.115-1.44-0.25-2.007-0.402v-3.361h0.472c0.201,0.079,0.435,0.168,0.708,0.262c0.273,0.097,0.545,0.184,0.822,0.263
			c0.33,0.089,0.654,0.16,0.967,0.216c0.313,0.057,0.636,0.085,0.966,0.085c0.682,0,1.252-0.075,1.708-0.223
			c0.456-0.146,0.797-0.357,1.027-0.628c0.231-0.279,0.393-0.608,0.484-0.987c0.091-0.379,0.139-0.856,0.139-1.431v-0.251
			c-0.453,0.415-0.977,0.747-1.57,1c-0.596,0.251-1.206,0.375-1.834,0.375c-1.672,0-2.961-0.565-3.871-1.698
			c-0.906-1.133-1.36-2.858-1.36-5.17c0-1.054,0.14-1.998,0.42-2.835c0.279-0.838,0.667-1.552,1.169-2.144
			c0.475-0.567,1.049-1.002,1.723-1.311c0.677-0.309,1.377-0.46,2.106-0.46c0.657,0,1.248,0.087,1.771,0.262
			c0.521,0.177,0.996,0.412,1.425,0.707l0.15-0.6h3.897v11.901H63.668z M59.644,117.416v-6.092
			c-0.201-0.097-0.445-0.175-0.737-0.239c-0.29-0.064-0.583-0.095-0.873-0.095c-0.966,0-1.692,0.324-2.182,0.974
			c-0.485,0.651-0.729,1.558-0.729,2.723c0,0.582,0.036,1.073,0.11,1.476c0.072,0.403,0.208,0.761,0.407,1.074
			c0.193,0.303,0.443,0.531,0.755,0.687c0.311,0.154,0.707,0.233,1.188,0.233c0.362,0,0.717-0.064,1.063-0.191
			C58.994,117.837,59.328,117.654,59.644,117.416z"/>
		<path fill="#231815" d="M78.849,121.65h-4.048v-6.665c0-0.543-0.021-1.082-0.063-1.622c-0.041-0.536-0.122-0.934-0.236-1.189
			c-0.138-0.303-0.337-0.522-0.597-0.654c-0.262-0.131-0.61-0.197-1.047-0.197c-0.33,0-0.665,0.063-1.002,0.192
			c-0.338,0.126-0.699,0.33-1.082,0.609v9.523H66.75v-13.437h4.023v1.484c0.659-0.583,1.301-1.036,1.926-1.366
			c0.625-0.326,1.317-0.489,2.077-0.489c1.319,0,2.327,0.433,3.024,1.299c0.697,0.865,1.047,2.119,1.047,3.764L78.849,121.65
			L78.849,121.65z"/>
	</g>
</g>
</svg>
