<?xml version="1.0" encoding="utf-8"?>
<!-- Generator: Adobe Illustrator 16.0.0, SVG Export Plug-In . SVG Version: 6.00 Build 0)  -->
<!DOCTYPE svg PUBLIC "-//W3C//DTD SVG 1.1//EN" "http://www.w3.org/Graphics/SVG/1.1/DTD/svg11.dtd">
<svg version="1.1" id="圖層_1" xmlns="http://www.w3.org/2000/svg" xmlns:xlink="http://www.w3.org/1999/xlink" x="0px" y="0px"
	 width="119.917px" height="58.667px" viewBox="0 0 119.917 58.667" enable-background="new 0 0 119.917 58.667"
	 xml:space="preserve">
<g>
	<path fill="#231815" d="M29.91,15.457c0-1.238-0.309-2.217-0.928-2.942c-0.671-0.807-2.03-1.171-4.072-1.088l-1.25,0.04
		l-0.243,8.787c2.177-0.135,3.751-0.499,4.718-1.088C29.318,18.439,29.91,17.202,29.91,15.457 M36.077,37.229l-5.16,1.937
		c-1.613-4.869-3.454-9.706-5.525-14.516c-0.349,0.024-0.886,0.054-1.613,0.08l-0.524,0.041l-0.443,14.395l-5.484-0.322l0.323-5.645
		c0.431-7.5,0.646-16.318,0.646-26.451c1.639-0.268,3.685-0.403,6.129-0.403c4.167,0,7.042,0.871,8.627,2.622
		c1.559,1.773,2.339,3.935,2.339,6.491c0,1.773-0.445,3.386-1.331,4.838c-0.861,1.396-2.096,2.431-3.709,3.104l1.855,4.879
		C33.713,32.201,35.003,35.185,36.077,37.229"/>
	<path fill="#231815" d="M73.764,28.334c0,0.746-0.018,1.805-0.055,3.172c-0.037,1.345-0.055,3.715-0.055,7.107h-3.608
		c0.146-0.913,0.283-2.645,0.412-5.195c0.091-2.26,0.135-3.956,0.135-5.083c0-1.203-0.228-2.145-0.684-2.817
		c-0.436-0.693-1.082-1.038-1.94-1.038c-0.946,0-1.767,0.356-2.459,1.066l-0.19,5.028c-0.055,1.44-0.084,4.118-0.084,8.039
		l-3.718-0.083l0.876-16.484l3.28,0.11l-0.027,0.409c0.931-0.619,1.814-0.929,2.653-0.929c1.676,0,3.022,0.548,4.045,1.64
		C73.289,24.496,73.764,26.182,73.764,28.334"/>
	<path fill="#231815" d="M85.489,31.341c0-2.99-0.838-4.482-2.515-4.482c-0.674,0-1.249,0.412-1.724,1.23
		c-0.455,0.819-0.682,1.903-0.682,3.252c0,0.964,0.164,1.822,0.492,2.569c0.437,0.985,1.077,1.477,1.914,1.477
		c0.891,0,1.575-0.546,2.049-1.641C85.335,33.052,85.489,32.251,85.489,31.341 M90.082,24.316l-1.286,12.357
		c-0.505,6.98-5.443,10.147-11.694,8.07l1.021-3.207c4.205,0.534,5.343-0.958,5.917-3.225c-0.109,0.432-0.83,0.138-1.177,0.138
		c-1.803,0-3.279-0.759-4.428-2.27c-1.055-1.368-1.586-2.98-1.586-4.84c0-2.241,0.557-4.038,1.667-5.386
		c1.166-1.439,2.652-2.159,4.458-2.159c1.147,0,2.186,0.373,3.116,1.122l0.055-0.711L90.082,24.316z"/>
	<path fill="#231815" d="M107.667,35c0,1.458-0.475,2.624-1.422,3.5c-1.002,0.928-2.279,1.395-3.828,1.395
		c-1.842,0-4.173-0.786-6.998-2.353l1.996-3.063c0.453,0.51,1.103,0.985,1.939,1.423c0.986,0.492,1.87,0.737,2.652,0.737
		c1.295,0,1.941-0.546,1.941-1.64c0-0.983-0.655-1.686-1.968-2.103l-2.05-0.629c-0.93-0.293-1.705-0.778-2.324-1.45
		c-0.783-0.84-1.176-1.996-1.176-3.473c0-1.531,0.52-2.732,1.559-3.606c0.912-0.768,2.023-1.149,3.336-1.149
		c2.843,0,4.81,1.43,5.903,4.291l-3.169,1.314c-0.494-1.57-1.332-2.353-2.515-2.353c-1.149,0-1.724,0.537-1.724,1.614
		c0,0.91,0.4,1.492,1.204,1.749l2.843,0.928c1.166,0.364,2.078,0.959,2.732,1.779C107.311,32.787,107.667,33.815,107.667,35"/>
	<polygon fill="#231815" points="96.39,21.175 93.339,24.455 91.667,22.667 94.806,20.717 91.001,21.29 91.874,16.821 
		95.473,17.278 	"/>
	<path fill="#B51D22" d="M51.632,5.828c0,0-3.08,1.875-2.599,3.056l11.333,0.108l-0.404,4.758l-2.864,1.345l0.455-4.03
		l-17.715,0.537l-0.289,3.493l-1.88,0.962V8.883h10.122c-0.482-0.895-0.33-3.056,0.729-4.62L51.632,5.828z"/>
	<path fill="#B51D22" d="M47.138,18.435c0,0,0.288,2.437-7.695,4.985l1.276,2.333c0,0,7.522-2.951,8.308-6.884L47.138,18.435z"/>
	<path fill="#B51D22" d="M48.427,19.822c0,0,0.501,2.402,10.056,2.14L57.872,24.6c0,0-9.185-0.273-11.358-3.733L48.427,19.822z"/>
	<path fill="#B51D22" d="M38.592,27.202h19.617c0,0,3.309,11.131-9.827,12.202C48.382,39.404,36.922,41.021,38.592,27.202"/>
	<path fill="#B51D22" d="M53.444,16.364l1.895-1.035c-0.572-1.047-1.884-1.431-2.933-0.858c-1.044,0.572-1.43,1.882-0.859,2.928
		c0.572,1.048,1.885,1.432,2.931,0.859c0.444-0.241,0.736-0.629,0.921-1.063L53.444,16.364z"/>
	<path fill="#B51D22" d="M44.338,16.058l1.896-1.035c-0.573-1.048-1.885-1.431-2.933-0.859c-1.045,0.57-1.43,1.882-0.858,2.929
		c0.571,1.047,1.885,1.431,2.93,0.859c0.444-0.241,0.736-0.629,0.92-1.062L44.338,16.058z"/>
	<path fill="#E51D12" d="M47.938,33.333c-3.308,0-6.268,0.809-8.302,2.083c2.667,4.838,8.715,3.989,8.715,3.989
		c4.387-0.358,6.934-1.841,8.387-3.652C54.711,34.284,51.528,33.333,47.938,33.333"/>
</g>
</svg>
